<mxfile host="65bd71144e">
    <diagram name="Side-1" id="XJNhgDP5bhegLKv53goI">
        <mxGraphModel dx="700" dy="500" grid="1" gridSize="10" guides="1" tooltips="1" connect="1" arrows="1" fold="1" page="1" pageScale="1" pageWidth="827" pageHeight="1169" math="0" shadow="0">
            <root>
                <mxCell id="0"/>
                <mxCell id="1" parent="0"/>
                <mxCell id="xcBc5CFG8cGn9j_TFrw9-24" value="&lt;u&gt;CheepId&lt;/u&gt;" style="ellipse;whiteSpace=wrap;html=1;" parent="1" vertex="1">
                    <mxGeometry x="550" y="460" width="70" height="40" as="geometry"/>
                </mxCell>
                <mxCell id="xcBc5CFG8cGn9j_TFrw9-32" style="edgeStyle=orthogonalEdgeStyle;rounded=0;orthogonalLoop=1;jettySize=auto;html=1;exitX=0.5;exitY=0;exitDx=0;exitDy=0;entryX=0.5;entryY=1;entryDx=0;entryDy=0;endArrow=none;endFill=0;" parent="1" source="xcBc5CFG8cGn9j_TFrw9-25" target="xcBc5CFG8cGn9j_TFrw9-24" edge="1">
                    <mxGeometry relative="1" as="geometry"/>
                </mxCell>
                <mxCell id="xcBc5CFG8cGn9j_TFrw9-36" style="edgeStyle=none;rounded=0;orthogonalLoop=1;jettySize=auto;html=1;exitX=1;exitY=0;exitDx=0;exitDy=0;entryX=0;entryY=1;entryDx=0;entryDy=0;endArrow=none;endFill=0;" parent="1" source="xcBc5CFG8cGn9j_TFrw9-25" target="xcBc5CFG8cGn9j_TFrw9-34" edge="1">
                    <mxGeometry relative="1" as="geometry"/>
                </mxCell>
                <mxCell id="xcBc5CFG8cGn9j_TFrw9-41" style="edgeStyle=none;rounded=0;orthogonalLoop=1;jettySize=auto;html=1;exitX=1;exitY=0.5;exitDx=0;exitDy=0;entryX=0;entryY=0.5;entryDx=0;entryDy=0;endArrow=none;endFill=0;" parent="1" source="xcBc5CFG8cGn9j_TFrw9-25" target="xcBc5CFG8cGn9j_TFrw9-38" edge="1">
                    <mxGeometry relative="1" as="geometry"/>
                </mxCell>
                <mxCell id="xcBc5CFG8cGn9j_TFrw9-42" style="edgeStyle=none;rounded=0;orthogonalLoop=1;jettySize=auto;html=1;exitX=1;exitY=0.5;exitDx=0;exitDy=0;entryX=0;entryY=0.5;entryDx=0;entryDy=0;endArrow=none;endFill=0;" parent="1" source="xcBc5CFG8cGn9j_TFrw9-25" target="xcBc5CFG8cGn9j_TFrw9-39" edge="1">
                    <mxGeometry relative="1" as="geometry"/>
                </mxCell>
                <mxCell id="xcBc5CFG8cGn9j_TFrw9-43" style="edgeStyle=none;rounded=0;orthogonalLoop=1;jettySize=auto;html=1;exitX=1;exitY=1;exitDx=0;exitDy=0;entryX=0;entryY=0;entryDx=0;entryDy=0;endArrow=none;endFill=0;" parent="1" source="xcBc5CFG8cGn9j_TFrw9-25" target="xcBc5CFG8cGn9j_TFrw9-40" edge="1">
                    <mxGeometry relative="1" as="geometry"/>
                </mxCell>
                <mxCell id="xcBc5CFG8cGn9j_TFrw9-25" value="Cheep" style="rounded=0;whiteSpace=wrap;html=1;" parent="1" vertex="1">
                    <mxGeometry x="550" y="540" width="70" height="40" as="geometry"/>
                </mxCell>
                <mxCell id="xcBc5CFG8cGn9j_TFrw9-46" style="edgeStyle=none;rounded=0;orthogonalLoop=1;jettySize=auto;html=1;exitX=0;exitY=0;exitDx=0;exitDy=0;entryX=1;entryY=1;entryDx=0;entryDy=0;endArrow=none;endFill=0;" parent="1" source="xcBc5CFG8cGn9j_TFrw9-26" target="xcBc5CFG8cGn9j_TFrw9-44" edge="1">
                    <mxGeometry relative="1" as="geometry"/>
                </mxCell>
                <mxCell id="xcBc5CFG8cGn9j_TFrw9-47" style="edgeStyle=none;rounded=0;orthogonalLoop=1;jettySize=auto;html=1;exitX=0;exitY=0.5;exitDx=0;exitDy=0;entryX=1;entryY=0.5;entryDx=0;entryDy=0;endArrow=none;endFill=0;" parent="1" source="xcBc5CFG8cGn9j_TFrw9-26" target="xcBc5CFG8cGn9j_TFrw9-45" edge="1">
                    <mxGeometry relative="1" as="geometry"/>
                </mxCell>
                <mxCell id="xcBc5CFG8cGn9j_TFrw9-50" style="edgeStyle=none;rounded=0;orthogonalLoop=1;jettySize=auto;html=1;exitX=0;exitY=0.5;exitDx=0;exitDy=0;entryX=1;entryY=0.5;entryDx=0;entryDy=0;endArrow=none;endFill=0;" parent="1" source="xcBc5CFG8cGn9j_TFrw9-26" target="xcBc5CFG8cGn9j_TFrw9-48" edge="1">
                    <mxGeometry relative="1" as="geometry"/>
                </mxCell>
                <mxCell id="xcBc5CFG8cGn9j_TFrw9-51" style="edgeStyle=orthogonalEdgeStyle;rounded=0;orthogonalLoop=1;jettySize=auto;html=1;exitX=0.25;exitY=1;exitDx=0;exitDy=0;entryX=0;entryY=0.5;entryDx=0;entryDy=0;endArrow=none;endFill=0;" parent="1" source="xcBc5CFG8cGn9j_TFrw9-26" target="xcBc5CFG8cGn9j_TFrw9-49" edge="1">
                    <mxGeometry relative="1" as="geometry">
                        <Array as="points">
                            <mxPoint x="318" y="590"/>
                            <mxPoint x="270" y="590"/>
                            <mxPoint x="270" y="635"/>
                        </Array>
                    </mxGeometry>
                </mxCell>
                <mxCell id="xcBc5CFG8cGn9j_TFrw9-55" style="edgeStyle=none;rounded=0;orthogonalLoop=1;jettySize=auto;html=1;exitX=0.5;exitY=0;exitDx=0;exitDy=0;entryX=0.5;entryY=1;entryDx=0;entryDy=0;" parent="1" source="xcBc5CFG8cGn9j_TFrw9-26" target="xcBc5CFG8cGn9j_TFrw9-56" edge="1">
                    <mxGeometry relative="1" as="geometry">
                        <mxPoint x="334.72413793103453" y="450" as="targetPoint"/>
                    </mxGeometry>
                </mxCell>
                <mxCell id="xcBc5CFG8cGn9j_TFrw9-26" value="Author" style="rounded=0;whiteSpace=wrap;html=1;" parent="1" vertex="1">
                    <mxGeometry x="300" y="540" width="70" height="40" as="geometry"/>
                </mxCell>
                <mxCell id="xcBc5CFG8cGn9j_TFrw9-29" style="rounded=0;orthogonalLoop=1;jettySize=auto;html=1;exitX=0;exitY=0.5;exitDx=0;exitDy=0;entryX=1;entryY=0.5;entryDx=0;entryDy=0;endArrow=none;endFill=0;" parent="1" source="xcBc5CFG8cGn9j_TFrw9-27" target="xcBc5CFG8cGn9j_TFrw9-26" edge="1">
                    <mxGeometry relative="1" as="geometry"/>
                </mxCell>
                <mxCell id="xcBc5CFG8cGn9j_TFrw9-27" value="shares/ shared by" style="rhombus;whiteSpace=wrap;html=1;" parent="1" vertex="1">
                    <mxGeometry x="420" y="522.5" width="80" height="75" as="geometry"/>
                </mxCell>
                <mxCell id="xcBc5CFG8cGn9j_TFrw9-28" style="rounded=0;orthogonalLoop=1;jettySize=auto;html=1;exitX=1;exitY=0.5;exitDx=0;exitDy=0;entryX=0;entryY=0.5;entryDx=0;entryDy=0;endArrow=none;endFill=0;" parent="1" source="xcBc5CFG8cGn9j_TFrw9-27" target="xcBc5CFG8cGn9j_TFrw9-25" edge="1">
                    <mxGeometry relative="1" as="geometry"/>
                </mxCell>
                <mxCell id="xcBc5CFG8cGn9j_TFrw9-30" value="0..N" style="text;html=1;align=center;verticalAlign=middle;whiteSpace=wrap;rounded=0;" parent="1" vertex="1">
                    <mxGeometry x="520" y="530" width="30" height="30" as="geometry"/>
                </mxCell>
                <mxCell id="xcBc5CFG8cGn9j_TFrw9-31" value="1..1" style="text;html=1;align=center;verticalAlign=middle;whiteSpace=wrap;rounded=0;" parent="1" vertex="1">
                    <mxGeometry x="370" y="530" width="30" height="30" as="geometry"/>
                </mxCell>
                <mxCell id="xcBc5CFG8cGn9j_TFrw9-34" value="AuthorId" style="ellipse;whiteSpace=wrap;html=1;" parent="1" vertex="1">
                    <mxGeometry x="640" y="460" width="70" height="40" as="geometry"/>
                </mxCell>
                <mxCell id="xcBc5CFG8cGn9j_TFrw9-38" value="Text" style="ellipse;whiteSpace=wrap;html=1;" parent="1" vertex="1">
                    <mxGeometry x="680" y="510" width="70" height="40" as="geometry"/>
                </mxCell>
                <mxCell id="xcBc5CFG8cGn9j_TFrw9-39" value="Author" style="ellipse;whiteSpace=wrap;html=1;" parent="1" vertex="1">
                    <mxGeometry x="680" y="570" width="70" height="40" as="geometry"/>
                </mxCell>
                <mxCell id="xcBc5CFG8cGn9j_TFrw9-40" value="TimeStamp" style="ellipse;whiteSpace=wrap;html=1;" parent="1" vertex="1">
                    <mxGeometry x="640" y="620" width="70" height="40" as="geometry"/>
                </mxCell>
                <mxCell id="xcBc5CFG8cGn9j_TFrw9-44" value="&lt;u&gt;AuthorId&lt;/u&gt;" style="ellipse;whiteSpace=wrap;html=1;" parent="1" vertex="1">
                    <mxGeometry x="210" y="470" width="70" height="40" as="geometry"/>
                </mxCell>
                <mxCell id="xcBc5CFG8cGn9j_TFrw9-45" value="Name" style="ellipse;whiteSpace=wrap;html=1;" parent="1" vertex="1">
                    <mxGeometry x="190" y="520" width="70" height="40" as="geometry"/>
                </mxCell>
                <mxCell id="xcBc5CFG8cGn9j_TFrw9-48" value="Email" style="ellipse;whiteSpace=wrap;html=1;" parent="1" vertex="1">
                    <mxGeometry x="190" y="565" width="70" height="40" as="geometry"/>
                </mxCell>
                <mxCell id="xcBc5CFG8cGn9j_TFrw9-52" style="edgeStyle=orthogonalEdgeStyle;rounded=0;orthogonalLoop=1;jettySize=auto;html=1;exitX=1;exitY=0.5;exitDx=0;exitDy=0;entryX=0.75;entryY=1;entryDx=0;entryDy=0;endArrow=none;endFill=0;" parent="1" source="xcBc5CFG8cGn9j_TFrw9-49" target="xcBc5CFG8cGn9j_TFrw9-26" edge="1">
                    <mxGeometry relative="1" as="geometry">
                        <Array as="points">
                            <mxPoint x="400" y="635"/>
                            <mxPoint x="400" y="590"/>
                            <mxPoint x="353" y="590"/>
                            <mxPoint x="353" y="580"/>
                        </Array>
                    </mxGeometry>
                </mxCell>
                <mxCell id="xcBc5CFG8cGn9j_TFrw9-49" value="Follows" style="rhombus;whiteSpace=wrap;html=1;" parent="1" vertex="1">
                    <mxGeometry x="295" y="610" width="75" height="50" as="geometry"/>
                </mxCell>
                <mxCell id="xcBc5CFG8cGn9j_TFrw9-53" value="0..N" style="text;html=1;align=center;verticalAlign=middle;whiteSpace=wrap;rounded=0;" parent="1" vertex="1">
                    <mxGeometry x="270" y="590" width="30" height="30" as="geometry"/>
                </mxCell>
                <mxCell id="xcBc5CFG8cGn9j_TFrw9-54" value="0..N" style="text;html=1;align=center;verticalAlign=middle;whiteSpace=wrap;rounded=0;" parent="1" vertex="1">
                    <mxGeometry x="370" y="590" width="30" height="30" as="geometry"/>
                </mxCell>
                <mxCell id="xcBc5CFG8cGn9j_TFrw9-58" style="edgeStyle=none;rounded=0;orthogonalLoop=1;jettySize=auto;html=1;exitX=0.5;exitY=0;exitDx=0;exitDy=0;entryX=0.5;entryY=1;entryDx=0;entryDy=0;" parent="1" source="xcBc5CFG8cGn9j_TFrw9-56" target="xcBc5CFG8cGn9j_TFrw9-57" edge="1">
                    <mxGeometry relative="1" as="geometry"/>
                </mxCell>
                <mxCell id="xcBc5CFG8cGn9j_TFrw9-56" value="ApplicationUser" style="rounded=0;whiteSpace=wrap;html=1;" parent="1" vertex="1">
                    <mxGeometry x="288.75" y="430" width="92.5" height="40" as="geometry"/>
                </mxCell>
                <mxCell id="xcBc5CFG8cGn9j_TFrw9-57" value="IdentityUser" style="rounded=0;whiteSpace=wrap;html=1;" parent="1" vertex="1">
                    <mxGeometry x="289.38" y="340" width="91.25" height="40" as="geometry"/>
                </mxCell>
            </root>
        </mxGraphModel>
    </diagram>
    <diagram id="C_WqOaiVl-DI2H7CQQix" name="Page-2">
        <mxGraphModel dx="1053" dy="412" grid="1" gridSize="10" guides="1" tooltips="1" connect="1" arrows="1" fold="1" page="1" pageScale="1" pageWidth="850" pageHeight="1100" math="0" shadow="0">
            <root>
                <mxCell id="0"/>
                <mxCell id="1" parent="0"/>
                <mxCell id="8erMZWtL6SoVjR-M0S7q-12" style="edgeStyle=none;html=1;entryX=0;entryY=0.5;entryDx=0;entryDy=0;" edge="1" parent="1" source="8erMZWtL6SoVjR-M0S7q-1" target="8erMZWtL6SoVjR-M0S7q-10">
                    <mxGeometry relative="1" as="geometry"/>
                </mxCell>
                <mxCell id="8erMZWtL6SoVjR-M0S7q-1" value="Build and Deploy" style="rounded=0;whiteSpace=wrap;html=1;" vertex="1" parent="1">
                    <mxGeometry x="200" y="80" width="120" height="60" as="geometry"/>
                </mxCell>
                <mxCell id="8erMZWtL6SoVjR-M0S7q-7" value="" style="edgeStyle=none;html=1;exitX=0.5;exitY=1;exitDx=0;exitDy=0;" edge="1" parent="1" source="8erMZWtL6SoVjR-M0S7q-4" target="8erMZWtL6SoVjR-M0S7q-6">
                    <mxGeometry relative="1" as="geometry">
                        <mxPoint x="603.3333333333333" y="460.0000000000001" as="sourcePoint"/>
                    </mxGeometry>
                </mxCell>
                <mxCell id="8erMZWtL6SoVjR-M0S7q-4" value="Set Up .Net Core" style="whiteSpace=wrap;html=1;rounded=0;" vertex="1" parent="1">
                    <mxGeometry x="600" y="80" width="120" height="60" as="geometry"/>
                </mxCell>
                <mxCell id="8erMZWtL6SoVjR-M0S7q-9" value="" style="edgeStyle=none;html=1;" edge="1" parent="1" source="8erMZWtL6SoVjR-M0S7q-6" target="8erMZWtL6SoVjR-M0S7q-8">
                    <mxGeometry relative="1" as="geometry"/>
                </mxCell>
                <mxCell id="8erMZWtL6SoVjR-M0S7q-6" value="dotnet Build Chirp.Razor/Chirp.Razor.csprj" style="whiteSpace=wrap;html=1;rounded=0;" vertex="1" parent="1">
                    <mxGeometry x="575" y="220" width="170" height="60" as="geometry"/>
                </mxCell>
                <mxCell id="8erMZWtL6SoVjR-M0S7q-21" value="" style="edgeStyle=none;html=1;" edge="1" parent="1" source="8erMZWtL6SoVjR-M0S7q-8" target="8erMZWtL6SoVjR-M0S7q-20">
                    <mxGeometry relative="1" as="geometry"/>
                </mxCell>
                <mxCell id="8erMZWtL6SoVjR-M0S7q-8" value="dotnet publish&lt;br&gt;Chirp.Razor/Chirp.Razor.csprj" style="whiteSpace=wrap;html=1;rounded=0;" vertex="1" parent="1">
                    <mxGeometry x="375" y="220" width="170" height="60" as="geometry"/>
                </mxCell>
                <mxCell id="8erMZWtL6SoVjR-M0S7q-11" style="edgeStyle=none;html=1;" edge="1" parent="1" source="8erMZWtL6SoVjR-M0S7q-10" target="8erMZWtL6SoVjR-M0S7q-4">
                    <mxGeometry relative="1" as="geometry"/>
                </mxCell>
                <mxCell id="8erMZWtL6SoVjR-M0S7q-10" value="Build" style="whiteSpace=wrap;html=1;rounded=0;" vertex="1" parent="1">
                    <mxGeometry x="400" y="80" width="120" height="60" as="geometry"/>
                </mxCell>
                <mxCell id="8erMZWtL6SoVjR-M0S7q-19" value="" style="edgeStyle=none;html=1;" edge="1" parent="1" source="8erMZWtL6SoVjR-M0S7q-13" target="8erMZWtL6SoVjR-M0S7q-18">
                    <mxGeometry relative="1" as="geometry"/>
                </mxCell>
                <mxCell id="8erMZWtL6SoVjR-M0S7q-13" value="Deploy" style="whiteSpace=wrap;html=1;rounded=0;" vertex="1" parent="1">
                    <mxGeometry x="400" y="360" width="120" height="60" as="geometry"/>
                </mxCell>
                <mxCell id="8erMZWtL6SoVjR-M0S7q-24" value="" style="edgeStyle=none;html=1;" edge="1" parent="1" source="8erMZWtL6SoVjR-M0S7q-18" target="8erMZWtL6SoVjR-M0S7q-23">
                    <mxGeometry relative="1" as="geometry"/>
                </mxCell>
                <mxCell id="8erMZWtL6SoVjR-M0S7q-18" value="uses download-artifact" style="whiteSpace=wrap;html=1;rounded=0;" vertex="1" parent="1">
                    <mxGeometry x="600" y="360" width="120" height="60" as="geometry"/>
                </mxCell>
                <mxCell id="8erMZWtL6SoVjR-M0S7q-28" value="" style="edgeStyle=none;html=1;" edge="1" parent="1" source="8erMZWtL6SoVjR-M0S7q-20" target="8erMZWtL6SoVjR-M0S7q-27">
                    <mxGeometry relative="1" as="geometry"/>
                </mxCell>
                <mxCell id="8erMZWtL6SoVjR-M0S7q-20" value="Upload Artifact&amp;nbsp;&lt;br&gt;from build" style="whiteSpace=wrap;html=1;rounded=0;" vertex="1" parent="1">
                    <mxGeometry x="200" y="220" width="120" height="60" as="geometry"/>
                </mxCell>
                <mxCell id="8erMZWtL6SoVjR-M0S7q-26" value="" style="edgeStyle=none;html=1;" edge="1" parent="1" source="8erMZWtL6SoVjR-M0S7q-23" target="8erMZWtL6SoVjR-M0S7q-25">
                    <mxGeometry relative="1" as="geometry"/>
                </mxCell>
                <mxCell id="8erMZWtL6SoVjR-M0S7q-23" value="login to Azure" style="whiteSpace=wrap;html=1;rounded=0;" vertex="1" parent="1">
                    <mxGeometry x="600" y="500" width="120" height="60" as="geometry"/>
                </mxCell>
                <mxCell id="8erMZWtL6SoVjR-M0S7q-25" value="Deploy to Azure &lt;br&gt;Web App" style="whiteSpace=wrap;html=1;rounded=0;" vertex="1" parent="1">
                    <mxGeometry x="400" y="500" width="120" height="60" as="geometry"/>
                </mxCell>
                <mxCell id="8erMZWtL6SoVjR-M0S7q-29" style="edgeStyle=none;html=1;exitX=1;exitY=0.5;exitDx=0;exitDy=0;entryX=0;entryY=0.5;entryDx=0;entryDy=0;" edge="1" parent="1" source="8erMZWtL6SoVjR-M0S7q-27" target="8erMZWtL6SoVjR-M0S7q-13">
                    <mxGeometry relative="1" as="geometry"/>
                </mxCell>
                <mxCell id="8erMZWtL6SoVjR-M0S7q-27" value="Load Artifact from Build into Deployment" style="whiteSpace=wrap;html=1;rounded=0;" vertex="1" parent="1">
                    <mxGeometry x="200" y="360" width="120" height="60" as="geometry"/>
                </mxCell>
            </root>
        </mxGraphModel>
    </diagram>
    <diagram id="GLfJLYXl8CPRA-JmI20n" name="Page-3">
        <mxGraphModel dx="1627" dy="636" grid="1" gridSize="10" guides="1" tooltips="1" connect="1" arrows="1" fold="1" page="1" pageScale="1" pageWidth="850" pageHeight="1100" math="0" shadow="0">
            <root>
                <mxCell id="0"/>
                <mxCell id="1" parent="0"/>
                <mxCell id="2akK0q-hfPZbXR7qBB0j-5" value="" style="edgeStyle=none;html=1;" edge="1" parent="1" source="2akK0q-hfPZbXR7qBB0j-1" target="2akK0q-hfPZbXR7qBB0j-4">
                    <mxGeometry relative="1" as="geometry"/>
                </mxCell>
                <mxCell id="2akK0q-hfPZbXR7qBB0j-1" value="Build and Release" style="rounded=0;whiteSpace=wrap;html=1;" vertex="1" parent="1">
                    <mxGeometry x="580" y="320" width="120" height="60" as="geometry"/>
                </mxCell>
                <mxCell id="2akK0q-hfPZbXR7qBB0j-7" value="" style="edgeStyle=none;html=1;" edge="1" parent="1" source="2akK0q-hfPZbXR7qBB0j-4" target="2akK0q-hfPZbXR7qBB0j-6">
                    <mxGeometry relative="1" as="geometry"/>
                </mxCell>
                <mxCell id="2akK0q-hfPZbXR7qBB0j-4" value="Build" style="whiteSpace=wrap;html=1;rounded=0;" vertex="1" parent="1">
                    <mxGeometry x="580" y="210" width="120" height="60" as="geometry"/>
                </mxCell>
                <mxCell id="2akK0q-hfPZbXR7qBB0j-9" value="" style="edgeStyle=none;html=1;entryX=1;entryY=0.5;entryDx=0;entryDy=0;" edge="1" parent="1" source="2akK0q-hfPZbXR7qBB0j-6" target="2akK0q-hfPZbXR7qBB0j-8">
                    <mxGeometry relative="1" as="geometry"/>
                </mxCell>
                <mxCell id="2akK0q-hfPZbXR7qBB0j-6" value="Setup .Net" style="whiteSpace=wrap;html=1;rounded=0;" vertex="1" parent="1">
                    <mxGeometry x="580" y="70" width="120" height="60" as="geometry"/>
                </mxCell>
                <mxCell id="2akK0q-hfPZbXR7qBB0j-11" value="" style="edgeStyle=none;html=1;" edge="1" parent="1" source="2akK0q-hfPZbXR7qBB0j-8" target="2akK0q-hfPZbXR7qBB0j-10">
                    <mxGeometry relative="1" as="geometry"/>
                </mxCell>
                <mxCell id="2akK0q-hfPZbXR7qBB0j-8" value="Install dependencies" style="whiteSpace=wrap;html=1;rounded=0;" vertex="1" parent="1">
                    <mxGeometry x="425" y="70" width="120" height="60" as="geometry"/>
                </mxCell>
                <mxCell id="2akK0q-hfPZbXR7qBB0j-17" style="edgeStyle=none;html=1;exitX=0;exitY=1;exitDx=0;exitDy=0;entryX=0.5;entryY=0;entryDx=0;entryDy=0;" edge="1" parent="1" source="2akK0q-hfPZbXR7qBB0j-10" target="2akK0q-hfPZbXR7qBB0j-16">
                    <mxGeometry relative="1" as="geometry"/>
                </mxCell>
                <mxCell id="2akK0q-hfPZbXR7qBB0j-27" style="edgeStyle=none;html=1;entryX=0.5;entryY=0;entryDx=0;entryDy=0;" edge="1" parent="1" source="2akK0q-hfPZbXR7qBB0j-10" target="2akK0q-hfPZbXR7qBB0j-20">
                    <mxGeometry relative="1" as="geometry"/>
                </mxCell>
                <mxCell id="2akK0q-hfPZbXR7qBB0j-28" style="edgeStyle=none;html=1;exitX=1;exitY=1;exitDx=0;exitDy=0;entryX=0.5;entryY=0;entryDx=0;entryDy=0;" edge="1" parent="1" source="2akK0q-hfPZbXR7qBB0j-10" target="2akK0q-hfPZbXR7qBB0j-22">
                    <mxGeometry relative="1" as="geometry"/>
                </mxCell>
                <mxCell id="2akK0q-hfPZbXR7qBB0j-10" value="Build project" style="whiteSpace=wrap;html=1;rounded=0;" vertex="1" parent="1">
                    <mxGeometry x="165" y="70" width="120" height="60" as="geometry"/>
                </mxCell>
                <mxCell id="2akK0q-hfPZbXR7qBB0j-19" value="" style="edgeStyle=none;html=1;" edge="1" parent="1" source="2akK0q-hfPZbXR7qBB0j-16" target="2akK0q-hfPZbXR7qBB0j-18">
                    <mxGeometry relative="1" as="geometry"/>
                </mxCell>
                <mxCell id="2akK0q-hfPZbXR7qBB0j-16" value="Publish for ubuntu" style="rounded=0;whiteSpace=wrap;html=1;" vertex="1" parent="1">
                    <mxGeometry x="25" y="210" width="120" height="60" as="geometry"/>
                </mxCell>
                <mxCell id="2akK0q-hfPZbXR7qBB0j-34" style="edgeStyle=none;html=1;exitX=0.5;exitY=1;exitDx=0;exitDy=0;entryX=0.5;entryY=0;entryDx=0;entryDy=0;" edge="1" parent="1" source="2akK0q-hfPZbXR7qBB0j-18" target="2akK0q-hfPZbXR7qBB0j-30">
                    <mxGeometry relative="1" as="geometry"/>
                </mxCell>
                <mxCell id="2akK0q-hfPZbXR7qBB0j-18" value="Zip for Ubuntu" style="whiteSpace=wrap;html=1;rounded=0;" vertex="1" parent="1">
                    <mxGeometry x="25" y="320" width="120" height="60" as="geometry"/>
                </mxCell>
                <mxCell id="2akK0q-hfPZbXR7qBB0j-24" value="" style="edgeStyle=none;html=1;" edge="1" parent="1" source="2akK0q-hfPZbXR7qBB0j-20" target="2akK0q-hfPZbXR7qBB0j-23">
                    <mxGeometry relative="1" as="geometry"/>
                </mxCell>
                <mxCell id="2akK0q-hfPZbXR7qBB0j-20" value="Publish for Windows" style="whiteSpace=wrap;html=1;rounded=0;" vertex="1" parent="1">
                    <mxGeometry x="165" y="210" width="120" height="60" as="geometry"/>
                </mxCell>
                <mxCell id="2akK0q-hfPZbXR7qBB0j-26" value="" style="edgeStyle=none;html=1;" edge="1" parent="1" source="2akK0q-hfPZbXR7qBB0j-22" target="2akK0q-hfPZbXR7qBB0j-25">
                    <mxGeometry relative="1" as="geometry"/>
                </mxCell>
                <mxCell id="2akK0q-hfPZbXR7qBB0j-22" value="Publish for macOS" style="whiteSpace=wrap;html=1;rounded=0;" vertex="1" parent="1">
                    <mxGeometry x="305" y="210" width="120" height="60" as="geometry"/>
                </mxCell>
                <mxCell id="2akK0q-hfPZbXR7qBB0j-36" value="" style="edgeStyle=none;html=1;" edge="1" parent="1" source="2akK0q-hfPZbXR7qBB0j-23" target="2akK0q-hfPZbXR7qBB0j-35">
                    <mxGeometry relative="1" as="geometry"/>
                </mxCell>
                <mxCell id="2akK0q-hfPZbXR7qBB0j-23" value="Zip for Windows" style="whiteSpace=wrap;html=1;rounded=0;" vertex="1" parent="1">
                    <mxGeometry x="165" y="320" width="120" height="60" as="geometry"/>
                </mxCell>
                <mxCell id="2akK0q-hfPZbXR7qBB0j-38" value="" style="edgeStyle=none;html=1;" edge="1" parent="1" source="2akK0q-hfPZbXR7qBB0j-25" target="2akK0q-hfPZbXR7qBB0j-37">
                    <mxGeometry relative="1" as="geometry"/>
                </mxCell>
                <mxCell id="2akK0q-hfPZbXR7qBB0j-25" value="Zip for macOS" style="whiteSpace=wrap;html=1;rounded=0;" vertex="1" parent="1">
                    <mxGeometry x="305" y="320" width="120" height="60" as="geometry"/>
                </mxCell>
                <mxCell id="2akK0q-hfPZbXR7qBB0j-40" style="edgeStyle=none;html=1;exitX=0.5;exitY=1;exitDx=0;exitDy=0;entryX=0;entryY=0;entryDx=0;entryDy=0;" edge="1" parent="1" source="2akK0q-hfPZbXR7qBB0j-30" target="2akK0q-hfPZbXR7qBB0j-39">
                    <mxGeometry relative="1" as="geometry"/>
                </mxCell>
                <mxCell id="2akK0q-hfPZbXR7qBB0j-30" value="Upload zipped artifacts" style="whiteSpace=wrap;html=1;rounded=0;" vertex="1" parent="1">
                    <mxGeometry x="25" y="430" width="120" height="60" as="geometry"/>
                </mxCell>
                <mxCell id="2akK0q-hfPZbXR7qBB0j-41" style="edgeStyle=none;html=1;exitX=0.5;exitY=1;exitDx=0;exitDy=0;entryX=0.5;entryY=0;entryDx=0;entryDy=0;" edge="1" parent="1" source="2akK0q-hfPZbXR7qBB0j-35" target="2akK0q-hfPZbXR7qBB0j-39">
                    <mxGeometry relative="1" as="geometry"/>
                </mxCell>
                <mxCell id="2akK0q-hfPZbXR7qBB0j-35" value="Upload zipped&amp;nbsp;&lt;br&gt;Windows build" style="whiteSpace=wrap;html=1;rounded=0;" vertex="1" parent="1">
                    <mxGeometry x="165" y="430" width="120" height="60" as="geometry"/>
                </mxCell>
                <mxCell id="2akK0q-hfPZbXR7qBB0j-42" style="edgeStyle=none;html=1;exitX=0.5;exitY=1;exitDx=0;exitDy=0;entryX=1;entryY=0;entryDx=0;entryDy=0;" edge="1" parent="1" source="2akK0q-hfPZbXR7qBB0j-37" target="2akK0q-hfPZbXR7qBB0j-39">
                    <mxGeometry relative="1" as="geometry"/>
                </mxCell>
                <mxCell id="2akK0q-hfPZbXR7qBB0j-37" value="Upload zipped&lt;br&gt;macOS build" style="whiteSpace=wrap;html=1;rounded=0;" vertex="1" parent="1">
                    <mxGeometry x="305" y="430" width="120" height="60" as="geometry"/>
                </mxCell>
                <mxCell id="2akK0q-hfPZbXR7qBB0j-44" value="" style="edgeStyle=none;html=1;" edge="1" parent="1" source="2akK0q-hfPZbXR7qBB0j-39" target="2akK0q-hfPZbXR7qBB0j-43">
                    <mxGeometry relative="1" as="geometry"/>
                </mxCell>
                <mxCell id="2akK0q-hfPZbXR7qBB0j-39" value="Create release" style="rounded=0;whiteSpace=wrap;html=1;" vertex="1" parent="1">
                    <mxGeometry x="165" y="540" width="120" height="60" as="geometry"/>
                </mxCell>
                <mxCell id="2akK0q-hfPZbXR7qBB0j-50" style="edgeStyle=none;html=1;exitX=0.5;exitY=1;exitDx=0;exitDy=0;entryX=0.5;entryY=0;entryDx=0;entryDy=0;" edge="1" parent="1" source="2akK0q-hfPZbXR7qBB0j-43" target="2akK0q-hfPZbXR7qBB0j-48">
                    <mxGeometry relative="1" as="geometry"/>
                </mxCell>
                <mxCell id="2akK0q-hfPZbXR7qBB0j-51" style="edgeStyle=none;html=1;exitX=0;exitY=1;exitDx=0;exitDy=0;entryX=0.5;entryY=0;entryDx=0;entryDy=0;" edge="1" parent="1" source="2akK0q-hfPZbXR7qBB0j-43" target="2akK0q-hfPZbXR7qBB0j-47">
                    <mxGeometry relative="1" as="geometry"/>
                </mxCell>
                <mxCell id="2akK0q-hfPZbXR7qBB0j-52" style="edgeStyle=none;html=1;exitX=1;exitY=1;exitDx=0;exitDy=0;entryX=0.5;entryY=0;entryDx=0;entryDy=0;" edge="1" parent="1" source="2akK0q-hfPZbXR7qBB0j-43" target="2akK0q-hfPZbXR7qBB0j-49">
                    <mxGeometry relative="1" as="geometry"/>
                </mxCell>
                <mxCell id="2akK0q-hfPZbXR7qBB0j-43" value="Checkout code" style="whiteSpace=wrap;html=1;rounded=0;" vertex="1" parent="1">
                    <mxGeometry x="165" y="630" width="120" height="60" as="geometry"/>
                </mxCell>
                <mxCell id="2akK0q-hfPZbXR7qBB0j-64" style="edgeStyle=none;html=1;exitX=0.5;exitY=1;exitDx=0;exitDy=0;entryX=0;entryY=0;entryDx=0;entryDy=0;" edge="1" parent="1" source="2akK0q-hfPZbXR7qBB0j-47" target="2akK0q-hfPZbXR7qBB0j-58">
                    <mxGeometry relative="1" as="geometry"/>
                </mxCell>
                <mxCell id="2akK0q-hfPZbXR7qBB0j-47" value="Download ubuntu&lt;br&gt;build artifact" style="rounded=0;whiteSpace=wrap;html=1;" vertex="1" parent="1">
                    <mxGeometry x="25" y="740" width="120" height="60" as="geometry"/>
                </mxCell>
                <mxCell id="2akK0q-hfPZbXR7qBB0j-59" value="" style="edgeStyle=none;html=1;" edge="1" parent="1" source="2akK0q-hfPZbXR7qBB0j-48" target="2akK0q-hfPZbXR7qBB0j-58">
                    <mxGeometry relative="1" as="geometry"/>
                </mxCell>
                <mxCell id="2akK0q-hfPZbXR7qBB0j-48" value="Download Windows&lt;br&gt;build artifact" style="whiteSpace=wrap;html=1;rounded=0;" vertex="1" parent="1">
                    <mxGeometry x="165" y="740" width="120" height="60" as="geometry"/>
                </mxCell>
                <mxCell id="2akK0q-hfPZbXR7qBB0j-60" style="edgeStyle=none;html=1;entryX=1;entryY=0;entryDx=0;entryDy=0;exitX=0.5;exitY=1;exitDx=0;exitDy=0;" edge="1" parent="1" source="2akK0q-hfPZbXR7qBB0j-49" target="2akK0q-hfPZbXR7qBB0j-58">
                    <mxGeometry relative="1" as="geometry"/>
                </mxCell>
                <mxCell id="2akK0q-hfPZbXR7qBB0j-49" value="Download macOS&lt;br&gt;build artifact" style="whiteSpace=wrap;html=1;rounded=0;" vertex="1" parent="1">
                    <mxGeometry x="305" y="740" width="120" height="60" as="geometry"/>
                </mxCell>
                <mxCell id="2akK0q-hfPZbXR7qBB0j-58" value="Create GitHub release" style="whiteSpace=wrap;html=1;rounded=0;" vertex="1" parent="1">
                    <mxGeometry x="165" y="870" width="120" height="60" as="geometry"/>
                </mxCell>
            </root>
        </mxGraphModel>
    </diagram>
</mxfile>